<svg xmlns="http://www.w3.org/2000/svg" viewBox="0 0 256 256" width="256" height="256">
  <title>Keycap, elevated — the whole icon is one key, lit from above</title>
  <defs>
    <linearGradient id="skirt" x1="0" y1="0" x2="0" y2="1">
      <stop offset="0" stop-color="#3D6FE8"/><stop offset="1" stop-color="#1E3A8F"/>
    </linearGradient>
    <linearGradient id="face" x1="0.2" y1="0" x2="0.8" y2="1">
      <stop offset="0" stop-color="#8FC0FF"/><stop offset="0.55" stop-color="#5A9CF8"/>
      <stop offset="1" stop-color="#3B78E0"/>
    </linearGradient>
    <linearGradient id="gloss" x1="0" y1="0" x2="0" y2="1">
      <stop offset="0" stop-color="#FFFFFF" stop-opacity="0.5"/>
      <stop offset="1" stop-color="#FFFFFF" stop-opacity="0"/>
    </linearGradient>
    <filter id="lift" x="-40%" y="-40%" width="180%" height="180%">
      <feDropShadow dx="0" dy="10" stdDeviation="10" flood-color="#0B1428" flood-opacity="0.45"/>
    </filter>
  </defs>
  <rect x="18" y="22" width="220" height="212" rx="46" fill="url(#skirt)" filter="url(#lift)"/>
  <rect x="36" y="38" width="184" height="166" rx="34" fill="url(#face)"/>
  <rect x="36" y="38" width="184" height="80" rx="34" fill="url(#gloss)"/>
  <g transform="translate(25.5 35.2) scale(0.8076)" fill="none" stroke="#0E1730" stroke-width="15.0" stroke-linecap="round" stroke-linejoin="round"><path d="M102.1 117.7 C90.3 105.8 78.9 95.9 69 91.6 C59.1 87.3 50.8 88.5 44.8 94.9 C38.8 101.3 35.2 112.7 34.3 125.2 C33.3 137.7 35 151 39.3 160.4 C43.5 169.9 50.3 175.4 59 175 C67.6 174.6 78.1 168.3 89.5 158.3 C100.9 148.3 113.2 134.8 125.2 122.4 C137.1 110.1 148.8 99.2 159 93.6"/><path d="M179.9 90 C187 92.5 192.2 100.1 195.2 110.5 C198.1 120.8 198.8 133.6 197 145 C195.3 156.3 191.2 166 185.1 171 C178.9 176 170.8 176.3 161.3 171.6 C151.9 167 141.1 157.6 129.9 146.3"/><path d="M137.7 121.9 L194.3 65.3"/><path d="M219.7 39.8 L181.9 52.9 L206.7 77.7 Z"/></g>
</svg>
